<svg width="16" height="16" viewBox="0 0 16 16" fill="none" xmlns="http://www.w3.org/2000/svg">
<path d="M5.33331 1.33334V3.33334M10.6666 1.33334V3.33334M2.33331 6.06H13.6666M12.7133 13.4067L11.3 12M12.7 12.0133L11.2866 13.4267M12 15.3333C12.7072 15.3333 13.3855 15.0524 13.8856 14.5523C14.3857 14.0522 14.6666 13.3739 14.6666 12.6667C14.6666 11.9594 14.3857 11.2811 13.8856 10.7811C13.3855 10.281 12.7072 10 12 10C11.2927 10 10.6145 10.281 10.1144 10.7811C9.61426 11.2811 9.33331 11.9594 9.33331 12.6667C9.33331 13.3739 9.61426 14.0522 10.1144 14.5523C10.6145 15.0524 11.2927 15.3333 12 15.3333Z" stroke="#7E92A2" stroke-miterlimit="10" stroke-linecap="round" stroke-linejoin="round"/>
<path d="M2 8.67334V5.66667C2 3.66667 3 2.33334 5.33333 2.33334H10.6667C13 2.33334 14 3.66667 14 5.66667V10.9067C13.5133 10.3533 12.8 10 12 10C10.5267 10 9.33333 11.1933 9.33333 12.6667C9.33333 13.1667 9.47333 13.64 9.72 14.04C9.86 14.28 10.04 14.4933 10.2467 14.6667H5.33333C3 14.6667 2 13.3333 2 11.3333" stroke="#7E92A2" stroke-miterlimit="10" stroke-linecap="round" stroke-linejoin="round"/>
<path d="M7.9967 9.13333H8.0027M5.53003 9.13333H5.5367M5.53003 11.1333H5.5367" stroke="#7E92A2" stroke-linecap="round" stroke-linejoin="round"/>
</svg>
