<svg width="22" height="24" viewBox="0 0 22 24" fill="none" xmlns="http://www.w3.org/2000/svg">
<path d="M2.75 4.97C2.75 3.33 3.97833 2 5.5 2H16.5C18.0217 2 19.25 3.33 19.25 4.97V15.88C19.25 17.52 18.0217 18.85 16.5 18.85H15.8033C15.07 18.85 14.3733 19.16 13.86 19.72L12.2925 21.41C11.5775 22.18 10.4133 22.18 9.69833 21.41L8.13083 19.72C7.6175 19.16 6.91167 18.85 6.1875 18.85H5.5C3.97833 18.85 2.75 17.52 2.75 15.88V9.03" stroke="#202B30" stroke-width="1.5" stroke-miterlimit="10" stroke-linecap="round" stroke-linejoin="round"/>
<path d="M14.6667 15.658C14.6667 13.858 13.0259 12.398 11 12.398C8.97421 12.398 7.33337 13.858 7.33337 15.658M11.0019 10C11.2824 10 11.5601 9.93973 11.8192 9.82264C12.0784 9.70554 12.3138 9.53392 12.5121 9.31756C12.7105 9.10119 12.8678 8.84434 12.9751 8.56165C13.0825 8.27896 13.1377 7.97598 13.1377 7.67C13.1377 7.36402 13.0825 7.06103 12.9751 6.77834C12.8678 6.49566 12.7105 6.2388 12.5121 6.02244C12.3138 5.80608 12.0784 5.63445 11.8192 5.51736C11.5601 5.40026 11.2824 5.34 11.0019 5.34C10.4354 5.34 9.89216 5.58548 9.49161 6.02244C9.09107 6.4594 8.86604 7.05204 8.86604 7.67C8.86604 8.28795 9.09107 8.8806 9.49161 9.31756C9.89216 9.75452 10.4354 10 11.0019 10V10Z" stroke="#202B30" stroke-width="1.5" stroke-linecap="round" stroke-linejoin="round"/>
</svg>
