<svg width="22" height="24" viewBox="0 0 22 24" fill="none" xmlns="http://www.w3.org/2000/svg">
<path d="M5.5 10V8C5.5 4.69 6.41667 2 11 2C15.5833 2 16.5 4.69 16.5 8V10M8.70833 16C8.70833 16.663 8.94978 17.2989 9.37955 17.7678C9.80932 18.2366 10.3922 18.5 11 18.5C11.6078 18.5 12.1907 18.2366 12.6205 17.7678C13.0502 17.2989 13.2917 16.663 13.2917 16C13.2917 15.337 13.0502 14.7011 12.6205 14.2322C12.1907 13.7634 11.6078 13.5 11 13.5" stroke="#202B30" stroke-width="1.5" stroke-linecap="round" stroke-linejoin="round"/>
<path d="M20.1667 17V15C20.1667 11 19.25 10 15.5834 10H6.41671C2.75004 10 1.83337 11 1.83337 15V17C1.83337 21 2.75004 22 6.41671 22H15.5834C17.1967 22 18.2784 21.81 18.9842 21.25" stroke="#202B30" stroke-width="1.5" stroke-linecap="round" stroke-linejoin="round"/>
</svg>
