<svg width="22" height="24" viewBox="0 0 22 24" fill="none" xmlns="http://www.w3.org/2000/svg">
<path d="M5.13331 17.759C4.21665 16.899 3.38248 15.839 2.64915 14.589C1.82415 13.179 1.82415 10.809 2.64915 9.399C3.73081 7.549 5.05081 6.099 6.52665 5.129M16.335 5.77C14.7308 4.45 12.8975 3.73 11 3.73M7.72015 19.53C8.76514 20.01 9.87431 20.27 11.0018 20.27C14.2376 20.27 17.2535 18.19 19.3526 14.59C20.1776 13.18 20.1776 10.81 19.3526 9.4C19.0501 8.88 18.7201 8.39 18.381 7.93M13.321 9.472L8.68265 14.532C8.37809 14.1998 8.1365 13.8053 7.97167 13.3712C7.80685 12.9371 7.72201 12.4719 7.72201 12.002C7.72201 11.5321 7.80685 11.0669 7.97167 10.6328C8.1365 10.1987 8.37809 9.80424 8.68265 9.472C8.9872 9.13975 9.34876 8.8762 9.74669 8.69639C10.1446 8.51658 10.5711 8.42404 11.0018 8.42404C11.4325 8.42404 11.859 8.51658 12.2569 8.69639C12.6549 8.8762 13.0164 9.13975 13.321 9.472V9.472Z" stroke="#1E5154" stroke-width="1.5" stroke-linecap="round" stroke-linejoin="round"/>
<path d="M14.2184 12.7C14.0942 13.3976 13.7818 14.0387 13.3212 14.5412C12.8606 15.0437 12.2728 15.3845 11.6334 15.52M8.68081 14.531L1.83331 22.001M20.1676 2L13.3201 9.47" stroke="#1E5154" stroke-width="1.5" stroke-linecap="round" stroke-linejoin="round"/>
</svg>
